<svg viewBox="0 0 1000 700" xmlns="http://www.w3.org/2000/svg" font-family="Segoe UI, Arial, sans-serif">
<rect x="0" y="0" width="1000" height="700" fill="#11151c"/>
<polygon points="600,60 860,60 860,280 700,280 700,400 600,400" fill="#1c222d" stroke="#3a4456" stroke-width="4" stroke-linejoin="round"/>
<polygon points="160,60 560,60 560,260 420,260 420,400 300,400 300,320 160,320" fill="#1c222d" stroke="#3a4456" stroke-width="4" stroke-linejoin="round"/>
<polygon points="120,420 420,420 420,620 120,620" fill="#1c222d" stroke="#3a4456" stroke-width="4" stroke-linejoin="round"/>
<polygon points="630,90 830,90 830,260 680,260 680,380 630,380" fill="#ff6a1a" fill-opacity="0.14" stroke="#ff6a1a" stroke-opacity="0.55" stroke-width="2.5" stroke-dasharray="8 6"/>
<polygon points="140,440 400,440 400,600 140,600" fill="#4da3ff" fill-opacity="0.14" stroke="#4da3ff" stroke-opacity="0.55" stroke-width="2.5" stroke-dasharray="8 6"/>
<text x="760" y="170" fill="#ff6a1a" font-size="26" font-weight="700" letter-spacing="1" text-anchor="middle">A SITE</text>
<text x="260" y="530" fill="#4da3ff" font-size="26" font-weight="700" letter-spacing="1" text-anchor="middle">B SITE</text>
<text x="360" y="150" fill="#97a1b3" font-size="15" text-anchor="middle" opacity="0.8">Mid / Canal</text>
<text x="240" y="360" fill="#97a1b3" font-size="15" text-anchor="middle" opacity="0.8">Water</text>
<text x="650" y="340" fill="#97a1b3" font-size="15" text-anchor="middle" opacity="0.8">Connector</text>
</svg>
