<svg viewBox="0 0 1000 700" xmlns="http://www.w3.org/2000/svg" font-family="Segoe UI, Arial, sans-serif">
<rect x="0" y="0" width="1000" height="700" fill="#11151c"/>
<polygon points="600,50 880,50 880,260 720,260 720,380 600,380" fill="#1c222d" stroke="#3a4456" stroke-width="4" stroke-linejoin="round"/>
<polygon points="160,60 560,60 560,260 420,260 420,380 300,380 300,300 160,300" fill="#1c222d" stroke="#3a4456" stroke-width="4" stroke-linejoin="round"/>
<polygon points="120,400 420,400 420,620 120,620" fill="#1c222d" stroke="#3a4456" stroke-width="4" stroke-linejoin="round"/>
<polygon points="630,80 860,80 860,240 700,240 700,360 630,360" fill="#ff6a1a" fill-opacity="0.14" stroke="#ff6a1a" stroke-opacity="0.55" stroke-width="2.5" stroke-dasharray="8 6"/>
<polygon points="140,470 400,470 400,600 140,600" fill="#4da3ff" fill-opacity="0.14" stroke="#4da3ff" stroke-opacity="0.55" stroke-width="2.5" stroke-dasharray="8 6"/>
<text x="760" y="160" fill="#ff6a1a" font-size="26" font-weight="700" letter-spacing="1" text-anchor="middle">A SITE</text>
<text x="260" y="540" fill="#4da3ff" font-size="26" font-weight="700" letter-spacing="1" text-anchor="middle">B SITE</text>
<text x="360" y="150" fill="#97a1b3" font-size="15" text-anchor="middle" opacity="0.8">Mid / Top Mid</text>
<text x="250" y="340" fill="#97a1b3" font-size="15" text-anchor="middle" opacity="0.8">Banana</text>
<text x="650" y="300" fill="#97a1b3" font-size="15" text-anchor="middle" opacity="0.8">Second Mid / Arch</text>
</svg>
