<svg viewBox="0 0 1000 700" xmlns="http://www.w3.org/2000/svg" font-family="Segoe UI, Arial, sans-serif">
<rect x="0" y="0" width="1000" height="700" fill="#11151c"/>
<polygon points="620,60 880,60 880,300 700,300 700,420 560,420 560,340 620,340" fill="#1c222d" stroke="#3a4456" stroke-width="4" stroke-linejoin="round"/>
<polygon points="120,60 400,60 400,260 560,260 560,340 400,340 400,460 120,460" fill="#1c222d" stroke="#3a4456" stroke-width="4" stroke-linejoin="round"/>
<polygon points="120,480 400,480 400,640 120,640" fill="#1c222d" stroke="#3a4456" stroke-width="4" stroke-linejoin="round"/>
<polygon points="650,90 860,90 860,280 680,280 680,340 650,340" fill="#ff6a1a" fill-opacity="0.14" stroke="#ff6a1a" stroke-opacity="0.55" stroke-width="2.5" stroke-dasharray="8 6"/>
<polygon points="140,500 380,500 380,620 140,620" fill="#4da3ff" fill-opacity="0.14" stroke="#4da3ff" stroke-opacity="0.55" stroke-width="2.5" stroke-dasharray="8 6"/>
<text x="760" y="180" fill="#ff6a1a" font-size="26" font-weight="700" letter-spacing="1" text-anchor="middle">A SITE</text>
<text x="260" y="560" fill="#4da3ff" font-size="26" font-weight="700" letter-spacing="1" text-anchor="middle">B SITE</text>
<text x="260" y="150" fill="#97a1b3" font-size="15" text-anchor="middle" opacity="0.8">Palace</text>
<text x="460" y="300" fill="#97a1b3" font-size="15" text-anchor="middle" opacity="0.8">Mid</text>
<text x="260" y="400" fill="#97a1b3" font-size="15" text-anchor="middle" opacity="0.8">Apps</text>
<text x="620" y="380" fill="#97a1b3" font-size="15" text-anchor="middle" opacity="0.8">Connector</text>
<text x="750" y="340" fill="#97a1b3" font-size="15" text-anchor="middle" opacity="0.8">Ramp</text>
</svg>
